0
SECTION
2
HEADER
9
$ACADVER
1
AC1009
9
$INSUNITS
70
4
0
ENDSEC
0
SECTION
2
ENTITIES
0
LINE
8
WEB
10
0.0
20
0.0
30
0.0
11
6000.0
21
0.0
31
0.0
0
LINE
8
WEB
10
0.0
20
0.0
30
0.0
11
5196.152
21
3000.0
31
0.0
0
LINE
8
WEB
10
0.0
20
0.0
30
0.0
11
3000.0
21
5196.152
31
0.0
0
LINE
8
WEB
10
0.0
20
0.0
30
0.0
11
0.0
21
6000.0
31
0.0
0
LINE
8
WEB
10
0.0
20
0.0
30
0.0
11
-3000.0
21
5196.152
31
0.0
0
LINE
8
WEB
10
0.0
20
0.0
30
0.0
11
-5196.152
21
3000.0
31
0.0
0
LINE
8
WEB
10
0.0
20
0.0
30
0.0
11
-6000.0
21
0.0
31
0.0
0
LINE
8
WEB
10
0.0
20
0.0
30
0.0
11
-5196.152
21
-3000.0
31
0.0
0
LINE
8
WEB
10
0.0
20
0.0
30
0.0
11
-3000.0
21
-5196.152
31
0.0
0
LINE
8
WEB
10
0.0
20
0.0
30
0.0
11
-0.0
21
-6000.0
31
0.0
0
LINE
8
WEB
10
0.0
20
0.0
30
0.0
11
3000.0
21
-5196.152
31
0.0
0
LINE
8
WEB
10
0.0
20
0.0
30
0.0
11
5196.152
21
-3000.0
31
0.0
0
CIRCLE
8
WEB
10
0.0
20
0.0
30
0.0
40
4200.0
0
ARC
8
WEB
10
0.0
20
0.0
30
0.0
40
1800.0
50
0
51
60
0
ARC
8
WEB
10
0.0
20
0.0
30
0.0
40
1800.0
50
60
51
120
0
ARC
8
WEB
10
0.0
20
0.0
30
0.0
40
1800.0
50
120
51
180
0
ARC
8
WEB
10
0.0
20
0.0
30
0.0
40
1800.0
50
180
51
240
0
ARC
8
WEB
10
0.0
20
0.0
30
0.0
40
1800.0
50
240
51
300
0
ARC
8
WEB
10
0.0
20
0.0
30
0.0
40
1800.0
50
300
51
360
0
LWPOLYLINE
8
WEB
90
12
70
1
10
3000.0
20
0.0
42
-0.25
10
2598.076
20
1500.0
42
0.25
10
1500.0
20
2598.076
42
-0.25
10
0.0
20
3000.0
42
0.25
10
-1500.0
20
2598.076
42
-0.25
10
-2598.076
20
1500.0
42
0.25
10
-3000.0
20
0.0
42
-0.25
10
-2598.076
20
-1500.0
42
0.25
10
-1500.0
20
-2598.076
42
-0.25
10
-0.0
20
-3000.0
42
0.25
10
1500.0
20
-2598.076
42
-0.25
10
2598.076
20
-1500.0
42
0.25
0
SPLINE
8
WEB
70
8
71
3
72
8
73
4
40
0
40
0
40
0
40
0
40
1
40
1
40
1
40
1
10
4200.0
20
0
30
0.0
10
5200
20
1600
30
0.0
10
4800
20
3400
30
0.0
10
2100.0
20
3637.307
30
0.0
0
ENDSEC
0
EOF
