# ring_band — hanging-lab example model (cm, Y up)
o ring_band
v 120.000 0.000 0.000
v 120.000 70.000 0.000
v 115.911 0.000 31.058
v 115.911 70.000 31.058
v 103.923 0.000 60.000
v 103.923 70.000 60.000
v 84.853 0.000 84.853
v 84.853 70.000 84.853
v 60.000 0.000 103.923
v 60.000 70.000 103.923
v 31.058 0.000 115.911
v 31.058 70.000 115.911
v 0.000 0.000 120.000
v 0.000 70.000 120.000
v -31.058 0.000 115.911
v -31.058 70.000 115.911
v -60.000 0.000 103.923
v -60.000 70.000 103.923
v -84.853 0.000 84.853
v -84.853 70.000 84.853
v -103.923 0.000 60.000
v -103.923 70.000 60.000
v -115.911 0.000 31.058
v -115.911 70.000 31.058
v -120.000 0.000 0.000
v -120.000 70.000 0.000
v -115.911 0.000 -31.058
v -115.911 70.000 -31.058
v -103.923 0.000 -60.000
v -103.923 70.000 -60.000
v -84.853 0.000 -84.853
v -84.853 70.000 -84.853
v -60.000 0.000 -103.923
v -60.000 70.000 -103.923
v -31.058 0.000 -115.911
v -31.058 70.000 -115.911
v -0.000 0.000 -120.000
v -0.000 70.000 -120.000
v 31.058 0.000 -115.911
v 31.058 70.000 -115.911
v 60.000 0.000 -103.923
v 60.000 70.000 -103.923
v 84.853 0.000 -84.853
v 84.853 70.000 -84.853
v 103.923 0.000 -60.000
v 103.923 70.000 -60.000
v 115.911 0.000 -31.058
v 115.911 70.000 -31.058
f 1 3 2
f 3 4 2
f 3 5 4
f 5 6 4
f 5 7 6
f 7 8 6
f 7 9 8
f 9 10 8
f 9 11 10
f 11 12 10
f 11 13 12
f 13 14 12
f 13 15 14
f 15 16 14
f 15 17 16
f 17 18 16
f 17 19 18
f 19 20 18
f 19 21 20
f 21 22 20
f 21 23 22
f 23 24 22
f 23 25 24
f 25 26 24
f 25 27 26
f 27 28 26
f 27 29 28
f 29 30 28
f 29 31 30
f 31 32 30
f 31 33 32
f 33 34 32
f 33 35 34
f 35 36 34
f 35 37 36
f 37 38 36
f 37 39 38
f 39 40 38
f 39 41 40
f 41 42 40
f 41 43 42
f 43 44 42
f 43 45 44
f 45 46 44
f 45 47 46
f 47 48 46
f 47 1 48
f 1 2 48
